# xmcd
#
# Track frame offsets: 
#        150
#        20033
#        38115
#        59185
#        78540
#        107400
#        126555
#        145500
#        163200
#        184993
#
# Disc length: 2753 seconds
#
# Revision: 2
# Processed by: cddbd v1.5.2PL0 Copyright (c) Steve Scherf et al.
# Submitted via: ExactAudioCopy v1.0b3
#
DISCID=920abf0a
DTITLE=Tuan Vu - Giot Le Dai Trang
DYEAR=1988
DGENRE=
TTITLE0=Giot le dai trang
TTITLE1=Be yeu
TTITLE2=Trom nhin nhau
TTITLE3=Nguoi ngoai pho
TTITLE4=Hai vi sao lac
TTITLE5=Tram men ngan thuong
TTITLE6=Truong cu tinh xua
TTITLE7=Thanh pho mua bay
TTITLE8=Anh biet em di chang tro ve
TTITLE9=Vinh biet
EXTD=
EXTT0=
EXTT1=
EXTT2=
EXTT3=
EXTT4=
EXTT5=
EXTT6=
EXTT7=
EXTT8=
EXTT9=
PLAYORDER=
